<svg xmlns="http://www.w3.org/2000/svg" version="1.1" xmlns:xlink="http://www.w3.org/1999/xlink" xmlns:svgjs="http://svgjs.dev/svgjs" width="1000" height="1000" viewBox="0 0 1000 1000"><rect width="1000" height="1000" fill="#ffffff"></rect><g transform="matrix(0.7,0,0,0.7,149.57575757575756,433.7167317591063)"><svg viewBox="0 0 396 75" data-background-color="#ffffff" preserveAspectRatio="xMidYMid meet" height="189" width="1000" xmlns="http://www.w3.org/2000/svg" xmlns:xlink="http://www.w3.org/1999/xlink"><g id="tight-bounds" transform="matrix(1,0,0,1,0.2400000000000091,0.07554888939554871)"><svg viewBox="0 0 395.52 74.84890222120889" height="74.84890222120889" width="395.52"><g><svg viewBox="0 0 471.5934028323906 89.2451671135942" height="74.84890222120889" width="395.52"><g><rect width="5.823604393137762" height="77.49218562685458" x="55.00476076088178" y="5.876490743369814" fill="#000000" opacity="1" stroke-width="0" stroke="transparent" fill-opacity="1" class="rect-o$-0" data-fill-palette-color="primary" rx="1%" id="o$-0" data-palette-color="#ba3b0a"></rect></g><g transform="matrix(1,0,0,1,76.07340283239064,12.334172878941025)"><svg viewBox="0 0 395.52 64.57682135571216" height="64.57682135571216" width="395.52"><g id="textblocktransform"><svg viewBox="0 0 395.52 64.57682135571216" height="64.57682135571216" width="395.52" id="textblock"><g><svg viewBox="0 0 395.52 64.57682135571216" height="64.57682135571216" width="395.52"><g transform="matrix(1,0,0,1,0,0)"><svg width="395.52" viewBox="-0.24 -37.7 246.79000000000002 40.30666666666667" height="64.57682135571216" data-palette-color="#ba3b0a"><path d="M13.38-36.33L13.38-36.33Q13.72-35.69 13.72-34.86L13.72-34.86Q13.72-34.13 13.43-33.3 13.13-32.47 12.5-32.03L12.5-32.03Q12.06-31.05 11.65-30.44 11.23-29.83 10.84-29.25L10.84-29.25Q10.69-28.91 10.55-28.59 10.4-28.27 10.16-27.93L10.16-27.93Q10.01-27.69 9.52-26.95 9.03-26.22 8.52-25.42 8.01-24.61 7.62-23.88 7.23-23.14 7.23-22.95L7.23-22.95Q7.23-22.75 7.69-22.46 8.15-22.17 8.3-22.02L8.3-22.02Q8.54-21.78 8.76-21.53 8.98-21.29 9.23-21.04L9.23-21.04Q9.77-20.61 10.28-20.17 10.79-19.73 11.33-19.19L11.33-19.19Q12.35-18.26 13.48-17.43 14.6-16.6 15.48-15.48L15.48-15.48Q16.31-15.23 16.55-14.31 16.8-13.38 16.7-12.55L16.7-12.55Q16.8-12.4 16.87-12.26 16.94-12.11 17.04-11.91L17.04-11.91Q17.04-11.13 16.82-10.77 16.6-10.4 16.36-9.86L16.36-9.86Q16.11-9.38 16.04-8.89 15.97-8.4 15.72-8.01L15.72-8.01Q15.63-7.86 15.45-7.76 15.28-7.67 15.19-7.47L15.19-7.47Q14.99-7.13 14.87-6.67 14.75-6.2 14.55-5.81L14.55-5.81Q14.4-5.42 14.18-5.03 13.96-4.64 13.82-4.25L13.82-4.25Q13.72-4 13.65-3.66 13.57-3.32 13.18-3.17L13.18-3.17Q12.94-2.29 12.52-1.46 12.11-0.63 11.87 0.24L11.87 0.24Q11.43 0.39 10.77 0.81 10.11 1.22 9.72 1.22L9.72 1.22Q9.57 1.22 9.47 1.07 9.38 0.93 9.18 0.83L9.18 0.83Q9.08 0.78 8.91 0.83 8.74 0.88 8.64 0.88L8.64 0.88Q8.4 0.88 8.28 0.68 8.15 0.49 7.96 0.39L7.96 0.39Q7.81 0.44 7.67 0.49 7.52 0.54 7.37 0.54L7.37 0.54Q7.03 0.54 6.98 0.37 6.93 0.2 6.69 0.05L6.69 0.05Q6.1-0.24 6.01-0.49 5.91-0.73 5.71-0.83L5.71-0.83Q6.05-2.1 6.64-3.25 7.23-4.39 7.76-5.57L7.76-5.57Q7.91-5.96 8.13-6.3 8.35-6.64 8.54-7.03L8.54-7.03Q8.69-7.37 8.98-7.91 9.28-8.45 9.52-9.03 9.77-9.62 9.96-10.13 10.16-10.64 10.16-10.99L10.16-10.99Q10.16-11.67 9.77-12.01L9.77-12.01Q8.35-13.18 7.1-14.4 5.86-15.63 4.49-16.89L4.49-16.89Q3.61-17.68 2.59-18.51L2.59-18.51Q2.39-18.65 2.29-18.95 2.2-19.24 2-19.48L2-19.48Q1.9-19.68 1.71-19.78 1.51-19.87 1.42-20.07L1.42-20.07Q1.27-20.26 1.22-20.53 1.17-20.8 0.93-20.95L0.93-20.95Q0.68-21.19 0.34-21.24 0-21.29-0.24-21.53L-0.24-21.53Q-0.1-21.68-0.12-21.85-0.15-22.02-0.15-22.17L-0.15-22.17Q-0.15-22.51 0.15-22.66 0.44-22.8 0.44-23.19L0.44-23.19Q0.63-23.58 0.73-23.68L0.73-23.68Q1.27-25 1.95-26.22 2.64-27.44 3.37-28.66L3.37-28.66Q3.61-29.05 3.83-29.42 4.05-29.79 4.3-30.18L4.3-30.18Q4.44-30.52 4.57-30.79 4.69-31.05 4.93-31.3L4.93-31.3Q5.62-32.08 6.08-32.76 6.54-33.45 6.79-34.42L6.79-34.42Q6.84-34.67 6.98-35.11 7.13-35.55 7.35-35.99 7.57-36.43 7.81-36.77 8.06-37.11 8.35-37.11L8.35-37.11Q8.59-37.11 9.06-36.91 9.52-36.72 9.86-36.62L9.86-36.62Q10.16-36.52 10.47-36.45 10.79-36.38 11.08-36.38L11.08-36.38Q11.28-36.38 11.47-36.5 11.67-36.62 11.91-36.62L11.91-36.62Q12.3-36.62 12.65-36.5 12.99-36.38 13.38-36.33ZM28.22-33.2L28.22-33.2Q28.22-32.76 27.93-32.54 27.63-32.32 27.39-31.98L27.39-31.98Q26.9-31.54 26.54-31.08 26.17-30.62 25.68-30.18L25.68-30.18Q25.49-29.98 25.14-29.66 24.8-29.35 24.44-29.03 24.07-28.71 23.7-28.47 23.34-28.22 23.09-28.22L23.09-28.22Q22.7-28.22 22.09-28.49 21.48-28.76 21.04-28.86L21.04-28.86Q20.7-28.91 20.43-28.93 20.16-28.96 19.92-29.2L19.92-29.2Q19.04-29.39 18.8-29.81 18.55-30.22 18.26-30.66L18.26-30.66Q18.26-30.86 18.41-30.91 18.55-30.96 18.65-31.1L18.65-31.1Q19.14-31.74 19.48-32.15 19.82-32.57 20.26-33.01L20.26-33.01Q21.09-33.74 21.85-34.52 22.6-35.3 23.43-35.99L23.43-35.99Q23.83-36.04 24.02-36.28 24.22-36.52 24.61-36.52L24.61-36.52Q25-36.52 25.27-36.28 25.53-36.04 25.75-35.72 25.97-35.4 26.19-35.08 26.41-34.77 26.71-34.62L26.71-34.62Q27.05-34.38 27.63-33.98 28.22-33.59 28.22-33.2ZM21.53-24.12L21.53-24.12Q21.87-23.93 22.04-23.61 22.21-23.29 22.56-23.14L22.56-23.14Q22.85-23 23.19-23 23.53-23 23.78-22.9L23.78-22.9Q23.97-22.8 24.07-22.66 24.17-22.51 24.27-22.36L24.27-22.36Q24.56-22.12 25.17-21.92 25.78-21.73 25.97-21.48L25.97-21.48Q26.32-21.04 26.49-20.36 26.66-19.68 26.76-18.92 26.85-18.16 26.9-17.41 26.95-16.65 27.05-16.11L27.05-16.11Q27.15-14.99 27.29-13.89 27.44-12.79 27.44-11.67L27.44-11.67Q27.44-10.55 27.34-9.38 27.24-8.2 27.24-7.08L27.24-7.08Q27.24-6.49 27.22-5.62 27.19-4.74 26.8-4.25L26.8-4.25Q26.76-4.05 26.76-3.56L26.76-3.56 26.76-2Q26.76-1.71 26.8-1.42 26.85-1.12 26.85-0.78L26.85-0.78Q26.85-0.24 26.56 0L26.56 0Q26.41-0.05 26.24-0.05 26.07-0.05 25.93-0.05L25.93-0.05Q25.39-0.05 25.14 0.15L25.14 0.15Q24.61 0.1 24.12 0.05 23.63 0 23.09 0L23.09 0Q22.26 0 21.29 0.24L21.29 0.24Q21.09-0.24 21.12-0.78 21.14-1.32 20.9-1.76L20.9-1.76Q20.85-1.9 20.82-2.03 20.8-2.15 20.8-2.29L20.8-2.29Q20.94-2.88 20.94-3.1 20.94-3.32 20.94-3.56L20.94-3.56Q20.94-4.25 20.9-4.96 20.85-5.66 20.94-6.35L20.94-6.35Q20.94-6.59 21.02-6.79 21.09-6.98 21.09-7.23L21.09-7.23Q21.09-7.47 20.99-7.57 20.9-7.67 20.9-7.81L20.9-7.81Q20.9-7.96 20.92-8.3 20.94-8.64 21.04-8.74L21.04-8.74Q21.04-9.13 21.07-9.5 21.09-9.86 21.09-10.21L21.09-10.21Q21.09-10.99 21.04-11.77 20.99-12.55 20.99-13.28L20.99-13.28Q20.99-13.62 20.94-13.72 20.9-13.82 20.85-13.87 20.8-13.92 20.7-13.94 20.6-13.96 20.55-14.11L20.55-14.11Q20.75-16.26 20.41-18.41 20.07-20.56 20.07-22.75L20.07-22.75Q20.07-23.1 20.16-23.27 20.26-23.44 20.41-23.54 20.55-23.63 20.68-23.75 20.8-23.88 20.85-24.12L20.85-24.12Q21.24-24.02 21.53-24.12ZM37.15-35.5L37.15-35.5Q37.35-35.55 37.49-35.64 37.64-35.74 37.84-35.74L37.84-35.74Q37.98-35.69 38.06-35.55 38.13-35.4 38.28-35.3L38.28-35.3Q38.42-35.4 38.54-35.5 38.67-35.6 38.81-35.64L38.81-35.64Q39.3-35.5 39.35-35.16L39.35-35.16Q39.59-35.06 39.79-34.94 39.99-34.81 40.23-34.77L40.23-34.77Q40.33-34.57 40.47-34.47 40.62-34.38 40.82-34.18L40.82-34.18Q41.3-34.08 42.11-33.64 42.91-33.2 43.4-32.96L43.4-32.96Q43.89-32.71 44.38-32.47 44.87-32.23 45.31-31.93L45.31-31.93Q45.75-31.69 46.19-31.37 46.63-31.05 47.11-30.86L47.11-30.86Q47.55-30.32 48.24-30.18 48.92-30.03 49.46-29.64L49.46-29.64Q49.9-29.39 50.29-29.13 50.68-28.86 51.07-28.61L51.07-28.61Q51.22-28.37 51.44-28.22 51.66-28.08 51.85-27.83L51.85-27.83Q52.83-27.29 52.97-27L52.97-27Q53.12-26.9 53.41-26.71 53.71-26.51 54-26.29 54.29-26.07 54.54-25.85 54.78-25.63 54.83-25.44L54.83-25.44Q54.63-25 54.63-24.73 54.63-24.46 54.44-24.27L54.44-24.27Q54.73-23.88 54.73-23.54L54.73-23.54Q54.49-22.95 53.9-22.56L53.9-22.56Q53.75-22.17 53.44-21.95 53.12-21.73 53.02-21.34L53.02-21.34Q52.63-21.09 52.56-20.95 52.49-20.8 52.39-20.65L52.39-20.65Q51.46-19.68 50.65-18.97 49.85-18.26 49.16-17.43L49.16-17.43Q48.68-17.19 48.33-16.82 47.99-16.46 47.7-16.02L47.7-16.02Q47.31-15.63 46.94-15.26 46.58-14.89 46.19-14.55L46.19-14.55Q46.09-14.36 45.87-14.23 45.65-14.11 45.55-13.87L45.55-13.87Q45.01-13.62 44.67-13.18 44.33-12.74 43.84-12.45L43.84-12.45 43.5-11.96Q43.35-11.87 43.09-11.65 42.82-11.43 42.55-11.16 42.28-10.89 42.08-10.64 41.89-10.4 41.84-10.25L41.84-10.25Q41.69-10.21 41.38-9.96 41.06-9.72 40.74-9.42 40.42-9.13 40.16-8.84 39.89-8.54 39.84-8.45L39.84-8.45 39.35-8.11Q39.4-6.79 39.42-5.44 39.45-4.1 39.45-2.78L39.45-2.78 39.45-1.12 39.11-0.68Q38.86-0.68 38.72-0.78 38.57-0.88 38.37-0.88L38.37-0.88Q38.18-0.88 38.01-0.68 37.84-0.49 37.69-0.39L37.69-0.39Q37.35-0.34 37.13-0.22 36.91-0.1 36.66 0L36.66 0Q36.37-0.15 36.08-0.15L36.08-0.15Q35.44 0 35.47-0.1 35.49-0.2 35.25-0.2L35.25-0.2Q34.86 0.2 34.76 0.2L34.76 0.2Q34.57 0.2 34.39 0.24 34.22 0.29 34.03 0.29L34.03 0.29Q33.83-0.1 33.71-0.51 33.59-0.93 33.25-1.32L33.25-1.32Q33.39-1.81 33.2-2L33.2-2Q33.49-2.54 33.44-3.22 33.39-3.91 33.39-4.49L33.39-4.49Q33.39-4.83 33.42-5.15 33.44-5.47 33.44-5.76L33.44-5.76Q33.44-6.35 33.34-6.96 33.25-7.57 33.25-8.2L33.25-8.2Q33.25-9.67 33.34-11.16 33.44-12.65 33.44-14.11L33.44-14.11Q33.44-14.94 33.37-15.82 33.3-16.7 33.3-17.53L33.3-17.53Q33.3-18.07 33.34-18.53 33.39-18.99 33.44-19.43L33.44-19.43Q33.44-21.68 33.52-23.75 33.59-25.83 33.59-27.88L33.59-27.88Q33.59-28.56 33.56-29.17 33.54-29.79 33.54-30.47L33.54-30.47Q33.54-30.81 33.59-31.15 33.64-31.49 33.64-31.84L33.64-31.84Q33.78-33.35 33.78-34.86L33.78-34.86 33.74-35.64Q33.93-35.94 34.32-35.94L34.32-35.94Q34.86-35.94 35.15-35.6L35.15-35.6Q35.49-35.64 35.81-35.72 36.13-35.79 36.42-35.79L36.42-35.79Q36.86-35.79 37.15-35.5ZM40.13-27.88L40.03-27.73Q40.03-27.49 39.99-27.37 39.94-27.25 39.89-27.15L39.89-27.15Q39.89-27 39.91-26.83 39.94-26.66 39.94-26.46L39.94-26.46Q39.94-25.34 39.91-24.24 39.89-23.14 39.89-22.07L39.89-22.07 39.79-19.48Q39.79-19.24 39.84-18.95 39.89-18.65 39.89-18.41L39.89-18.41Q39.89-18.16 39.84-17.92 39.79-17.68 39.79-17.43L39.79-17.43Q39.79-16.8 39.94-16.16L39.94-16.16Q40.18-16.26 40.28-16.48 40.38-16.7 40.52-16.85L40.52-16.85Q41.65-17.87 42.62-18.99 43.6-20.12 44.62-21.24L44.62-21.24Q45.5-22.17 46.14-22.75 46.77-23.34 47.11-24.17L47.11-24.17Q46.28-24.71 45.41-25.27 44.53-25.83 43.55-26.22L43.55-26.22Q43.5-26.32 43.28-26.46 43.06-26.61 42.82-26.73 42.57-26.86 42.33-26.95 42.08-27.05 41.99-27.05L41.99-27.05Q41.55-27.44 41.06-27.54L41.06-27.54Q40.72-27.54 40.47-27.66 40.23-27.78 40.13-27.88L40.13-27.88ZM66.84-35.99L66.84-35.99Q66.94-35.79 67.06-35.72 67.18-35.64 67.23-35.4L67.23-35.4Q67.57-35.16 67.77-35.03 67.96-34.91 68.01-34.62L68.01-34.62Q68.45-34.28 68.52-34.18 68.6-34.08 68.64-33.94L68.64-33.94Q68.89-33.74 69.11-33.59 69.33-33.45 69.43-33.15L69.43-33.15Q69.82-32.81 69.91-32.62 70.01-32.42 70.06-32.18L70.06-32.18Q69.87-31.84 69.28-31.25 68.69-30.66 67.96-30 67.23-29.35 66.55-28.74 65.86-28.13 65.47-27.78L65.47-27.78Q65.37-27.59 65.23-27.44 65.08-27.29 64.98-27.1L64.98-27.1Q64.69-26.86 64.45-26.59 64.2-26.32 63.86-26.17L63.86-26.17Q63.37-25.49 62.49-24.83 61.61-24.17 61.32-23.54L61.32-23.54Q61.37-23.39 61.54-23.24 61.71-23.1 61.81-23L61.81-23Q62.2-22.61 62.74-22.29 63.27-21.97 63.66-21.58L63.66-21.58Q64.06-21.24 64.45-20.92 64.84-20.61 65.23-20.26L65.23-20.26Q65.42-20.07 65.72-19.68L65.72-19.68Q66.2-19.29 66.67-18.97 67.13-18.65 67.57-18.26L67.57-18.26Q68.5-17.48 69.38-16.67 70.26-15.87 71.23-15.09L71.23-15.09 71.62-14.65Q71.62-14.26 71.84-13.75 72.06-13.23 72.26-12.89L72.26-12.89Q72.16-12.4 72.28-12.28 72.4-12.16 72.5-12.06L72.5-12.06Q72.45-11.13 72.55-10.84L72.55-10.84Q71.72-10.11 71.01-9.5 70.31-8.89 69.77-8.3L69.77-8.3Q69.33-7.76 68.86-7.35 68.4-6.93 67.86-6.45L67.86-6.45Q67.57-6.05 67.38-5.91L67.38-5.91Q67.03-5.57 66.69-5.37L66.69-5.37Q66.11-4.83 65.54-4.35 64.98-3.86 64.45-3.37L64.45-3.37Q64.06-3.03 63.71-2.71 63.37-2.39 63.03-2L63.03-2Q62.74-1.71 62.37-1.32 62-0.93 61.61-0.68L61.61-0.68Q61.47-0.39 61.22-0.17 60.98 0.05 60.78 0.29L60.78 0.29Q60.44 0.49 60.15 0.68 59.86 0.88 59.47 1.07L59.47 1.07Q59.07 0.78 58.71 0.54 58.34 0.29 57.9 0.2L57.9 0.2Q57.61-0.05 57.46-0.29 57.32-0.54 56.93-0.63L56.93-0.63Q56.83-0.78 56.71-0.95 56.58-1.12 56.49-1.32L56.49-1.32Q55.9-1.37 55.56-2.05L55.56-2.05Q55.66-2.34 55.83-2.49 56-2.64 55.9-3.03L55.9-3.03Q56.19-3.52 56.61-3.88 57.02-4.25 57.41-4.64L57.41-4.64Q57.85-5.03 58.22-5.44 58.59-5.86 59.03-6.25L59.03-6.25Q59.27-6.49 59.51-6.71 59.76-6.93 60.05-7.18L60.05-7.18Q60.59-7.71 61.15-8.18 61.71-8.64 62.3-9.18L62.3-9.18Q63.08-9.96 63.91-10.67 64.74-11.38 65.42-12.26L65.42-12.26Q65.37-12.45 65.28-12.52 65.18-12.6 65.13-12.74L65.13-12.74Q64.35-13.48 63.59-14.18 62.83-14.89 61.96-15.43L61.96-15.43Q61.66-15.72 61.56-15.92L61.56-15.92Q60.69-16.55 59.88-17.33 59.07-18.12 58.1-18.65L58.1-18.65Q57.9-18.9 57.63-19.07 57.37-19.24 57.12-19.38L57.12-19.38Q56.97-19.63 56.8-19.8 56.63-19.97 56.39-20.07L56.39-20.07Q56-20.41 55.88-20.63 55.75-20.85 55.46-20.9L55.46-20.9Q55.36-21.14 55.14-21.29 54.92-21.44 54.68-21.63L54.68-21.63Q54.58-21.92 54.39-22.12L54.39-22.12Q54.34-22.51 54.44-22.68 54.53-22.85 54.58-22.95L54.58-22.95Q54.53-23.24 54.31-23.39 54.09-23.54 54.09-23.88L54.09-23.88Q54.09-24.07 54.22-24.15 54.34-24.22 54.39-24.37L54.39-24.37 54.53-25.1Q54.92-25.39 55.19-25.81 55.46-26.22 55.9-26.46L55.9-26.46Q56.39-27.2 57.12-27.69L57.12-27.69Q57.37-28.08 57.73-28.32 58.1-28.56 58.34-28.96L58.34-28.96Q58.73-29.2 59-29.49 59.27-29.79 59.66-30.03L59.66-30.03Q59.76-30.22 59.88-30.35 60-30.47 60.05-30.62L60.05-30.62Q61.37-31.88 62.37-32.81 63.37-33.74 64.45-34.67L64.45-34.67Q64.74-34.91 65.03-35.21 65.32-35.5 65.67-35.74L65.67-35.74Q65.76-35.84 65.91-35.84 66.06-35.84 66.2-35.94L66.2-35.94Q66.79-35.94 66.84-35.99ZM79.19-35.5L79.19-35.5Q79.38-35.55 79.53-35.64 79.68-35.74 79.87-35.74L79.87-35.74Q80.02-35.69 80.09-35.55 80.17-35.4 80.31-35.3L80.31-35.3Q80.46-35.4 80.58-35.5 80.7-35.6 80.85-35.64L80.85-35.64Q81.34-35.5 81.39-35.16L81.39-35.16Q81.63-35.06 81.83-34.94 82.02-34.81 82.27-34.77L82.27-34.77Q82.36-34.57 82.51-34.47 82.66-34.38 82.85-34.18L82.85-34.18Q83.34-34.08 84.15-33.64 84.95-33.2 85.44-32.96L85.44-32.96Q85.93-32.71 86.42-32.47 86.9-32.23 87.34-31.93L87.34-31.93Q87.78-31.69 88.22-31.37 88.66-31.05 89.15-30.86L89.15-30.86Q89.59-30.32 90.27-30.18 90.96-30.03 91.49-29.64L91.49-29.64Q91.93-29.39 92.32-29.13 92.71-28.86 93.11-28.61L93.11-28.61Q93.25-28.37 93.47-28.22 93.69-28.08 93.89-27.83L93.89-27.83Q94.86-27.29 95.01-27L95.01-27Q95.16-26.9 95.45-26.71 95.74-26.51 96.03-26.29 96.33-26.07 96.57-25.85 96.82-25.63 96.87-25.44L96.87-25.44Q96.67-25 96.67-24.73 96.67-24.46 96.47-24.27L96.47-24.27Q96.77-23.88 96.77-23.54L96.77-23.54Q96.52-22.95 95.94-22.56L95.94-22.56Q95.79-22.17 95.47-21.95 95.16-21.73 95.06-21.34L95.06-21.34Q94.67-21.09 94.59-20.95 94.52-20.8 94.42-20.65L94.42-20.65Q93.5-19.68 92.69-18.97 91.88-18.26 91.2-17.43L91.2-17.43Q90.71-17.19 90.37-16.82 90.03-16.46 89.74-16.02L89.74-16.02Q89.35-15.63 88.98-15.26 88.61-14.89 88.22-14.55L88.22-14.55Q88.12-14.36 87.91-14.23 87.69-14.11 87.59-13.87L87.59-13.87Q87.05-13.62 86.71-13.18 86.37-12.74 85.88-12.45L85.88-12.45 85.54-11.96Q85.39-11.87 85.12-11.65 84.85-11.43 84.58-11.16 84.32-10.89 84.12-10.64 83.93-10.4 83.88-10.25L83.88-10.25Q83.73-10.21 83.41-9.96 83.1-9.72 82.78-9.42 82.46-9.13 82.19-8.84 81.92-8.54 81.87-8.45L81.87-8.45 81.39-8.11Q81.44-6.79 81.46-5.44 81.48-4.1 81.48-2.78L81.48-2.78 81.48-1.12 81.14-0.68Q80.9-0.68 80.75-0.78 80.61-0.88 80.41-0.88L80.41-0.88Q80.21-0.88 80.04-0.68 79.87-0.49 79.73-0.39L79.73-0.39Q79.38-0.34 79.16-0.22 78.95-0.1 78.7 0L78.7 0Q78.41-0.15 78.12-0.15L78.12-0.15Q77.48 0 77.5-0.1 77.53-0.2 77.28-0.2L77.28-0.2Q76.89 0.2 76.8 0.2L76.8 0.2Q76.6 0.2 76.43 0.24 76.26 0.29 76.06 0.29L76.06 0.29Q75.87-0.1 75.75-0.51 75.62-0.93 75.28-1.32L75.28-1.32Q75.43-1.81 75.23-2L75.23-2Q75.53-2.54 75.48-3.22 75.43-3.91 75.43-4.49L75.43-4.49Q75.43-4.83 75.45-5.15 75.48-5.47 75.48-5.76L75.48-5.76Q75.48-6.35 75.38-6.96 75.28-7.57 75.28-8.2L75.28-8.2Q75.28-9.67 75.38-11.16 75.48-12.65 75.48-14.11L75.48-14.11Q75.48-14.94 75.41-15.82 75.33-16.7 75.33-17.53L75.33-17.53Q75.33-18.07 75.38-18.53 75.43-18.99 75.48-19.43L75.48-19.43Q75.48-21.68 75.55-23.75 75.62-25.83 75.62-27.88L75.62-27.88Q75.62-28.56 75.6-29.17 75.58-29.79 75.58-30.47L75.58-30.47Q75.58-30.81 75.62-31.15 75.67-31.49 75.67-31.84L75.67-31.84Q75.82-33.35 75.82-34.86L75.82-34.86 75.77-35.64Q75.97-35.94 76.36-35.94L76.36-35.94Q76.89-35.94 77.19-35.6L77.19-35.6Q77.53-35.64 77.85-35.72 78.16-35.79 78.46-35.79L78.46-35.79Q78.9-35.79 79.19-35.5ZM82.17-27.88L82.07-27.73Q82.07-27.49 82.02-27.37 81.97-27.25 81.92-27.15L81.92-27.15Q81.92-27 81.95-26.83 81.97-26.66 81.97-26.46L81.97-26.46Q81.97-25.34 81.95-24.24 81.92-23.14 81.92-22.07L81.92-22.07 81.83-19.48Q81.83-19.24 81.87-18.95 81.92-18.65 81.92-18.41L81.92-18.41Q81.92-18.16 81.87-17.92 81.83-17.68 81.83-17.43L81.83-17.43Q81.83-16.8 81.97-16.16L81.97-16.16Q82.22-16.26 82.31-16.48 82.41-16.7 82.56-16.85L82.56-16.85Q83.68-17.87 84.66-18.99 85.63-20.12 86.66-21.24L86.66-21.24Q87.54-22.17 88.17-22.75 88.81-23.34 89.15-24.17L89.15-24.17Q88.32-24.71 87.44-25.27 86.56-25.83 85.59-26.22L85.59-26.22Q85.54-26.32 85.32-26.46 85.1-26.61 84.85-26.73 84.61-26.86 84.37-26.95 84.12-27.05 84.02-27.05L84.02-27.05Q83.58-27.44 83.1-27.54L83.1-27.54Q82.75-27.54 82.51-27.66 82.27-27.78 82.17-27.88L82.17-27.88ZM107.31-33.2L107.31-33.2Q107.31-32.76 107.02-32.54 106.73-32.32 106.48-31.98L106.48-31.98Q105.99-31.54 105.63-31.08 105.26-30.62 104.77-30.18L104.77-30.18Q104.58-29.98 104.24-29.66 103.89-29.35 103.53-29.03 103.16-28.71 102.8-28.47 102.43-28.22 102.18-28.22L102.18-28.22Q101.79-28.22 101.18-28.49 100.57-28.76 100.13-28.86L100.13-28.86Q99.79-28.91 99.52-28.93 99.26-28.96 99.01-29.2L99.01-29.2Q98.13-29.39 97.89-29.81 97.64-30.22 97.35-30.66L97.35-30.66Q97.35-30.86 97.5-30.91 97.64-30.96 97.74-31.1L97.74-31.1Q98.23-31.74 98.57-32.15 98.91-32.57 99.35-33.01L99.35-33.01Q100.18-33.74 100.94-34.52 101.7-35.3 102.53-35.99L102.53-35.99Q102.92-36.04 103.11-36.28 103.31-36.52 103.7-36.52L103.7-36.52Q104.09-36.52 104.36-36.28 104.63-36.04 104.85-35.72 105.07-35.4 105.29-35.08 105.51-34.77 105.8-34.62L105.8-34.62Q106.14-34.38 106.73-33.98 107.31-33.59 107.31-33.2ZM100.62-24.12L100.62-24.12Q100.96-23.93 101.13-23.61 101.31-23.29 101.65-23.14L101.65-23.14Q101.94-23 102.28-23 102.62-23 102.87-22.9L102.87-22.9Q103.06-22.8 103.16-22.66 103.26-22.51 103.36-22.36L103.36-22.36Q103.65-22.12 104.26-21.92 104.87-21.73 105.07-21.48L105.07-21.48Q105.41-21.04 105.58-20.36 105.75-19.68 105.85-18.92 105.94-18.16 105.99-17.41 106.04-16.65 106.14-16.11L106.14-16.11Q106.24-14.99 106.38-13.89 106.53-12.79 106.53-11.67L106.53-11.67Q106.53-10.55 106.43-9.38 106.34-8.2 106.34-7.08L106.34-7.08Q106.34-6.49 106.31-5.62 106.29-4.74 105.9-4.25L105.9-4.25Q105.85-4.05 105.85-3.56L105.85-3.56 105.85-2Q105.85-1.71 105.9-1.42 105.94-1.12 105.94-0.78L105.94-0.78Q105.94-0.24 105.65 0L105.65 0Q105.51-0.05 105.33-0.05 105.16-0.05 105.02-0.05L105.02-0.05Q104.48-0.05 104.24 0.15L104.24 0.15Q103.7 0.1 103.21 0.05 102.72 0 102.18 0L102.18 0Q101.35 0 100.38 0.24L100.38 0.24Q100.18-0.24 100.21-0.78 100.23-1.32 99.99-1.76L99.99-1.76Q99.94-1.9 99.91-2.03 99.89-2.15 99.89-2.29L99.89-2.29Q100.04-2.88 100.04-3.1 100.04-3.32 100.04-3.56L100.04-3.56Q100.04-4.25 99.99-4.96 99.94-5.66 100.04-6.35L100.04-6.35Q100.04-6.59 100.11-6.79 100.18-6.98 100.18-7.23L100.18-7.23Q100.18-7.47 100.09-7.57 99.99-7.67 99.99-7.81L99.99-7.81Q99.99-7.96 100.01-8.3 100.04-8.64 100.13-8.74L100.13-8.74Q100.13-9.13 100.16-9.5 100.18-9.86 100.18-10.21L100.18-10.21Q100.18-10.99 100.13-11.77 100.09-12.55 100.09-13.28L100.09-13.28Q100.09-13.62 100.04-13.72 99.99-13.82 99.94-13.87 99.89-13.92 99.79-13.94 99.69-13.96 99.65-14.11L99.65-14.11Q99.84-16.26 99.5-18.41 99.16-20.56 99.16-22.75L99.16-22.75Q99.16-23.1 99.26-23.27 99.35-23.44 99.5-23.54 99.65-23.63 99.77-23.75 99.89-23.88 99.94-24.12L99.94-24.12Q100.33-24.02 100.62-24.12ZM134.02-4.69L134.02-4.69Q133.97-3.96 134.34-3.59 134.7-3.22 134.95-2.69L134.95-2.69Q134.85-2 135.09-1.61L135.09-1.61Q134.95-1.32 134.8-0.95 134.65-0.59 134.36-0.34L134.36-0.34Q133.58 0 133.43 0.24 133.29 0.49 132.85 0.49L132.85 0.49Q132.6 0.73 132.31 1 132.02 1.27 131.77 1.51L131.77 1.51Q131.53 1.42 131.43 1.27 131.33 1.12 131.14 0.88L131.14 0.88Q130.65 0.73 130.26 0.37 129.87 0 129.57-0.46 129.28-0.93 129.01-1.44 128.74-1.95 128.55-2.39L128.55-2.39Q127.87-3.66 127.16-4.96 126.45-6.25 125.72-7.52L125.72-7.52Q125.33-8.15 124.96-8.81 124.59-9.47 124.2-10.16L124.2-10.16Q124.11-10.25 124.01-10.38 123.91-10.5 123.81-10.64L123.81-10.64Q123.47-11.13 123.3-11.74 123.13-12.35 122.59-12.74L122.59-12.74Q121.66-12.84 120.91-12.48 120.15-12.11 119.57-11.52L119.57-11.52Q119.61-11.18 119.61-10.89 119.61-10.6 119.61-10.3L119.61-10.3Q119.61-9.18 119.52-8.15 119.42-7.13 119.42-6.01L119.42-6.01Q119.42-5.52 119.47-5 119.52-4.49 119.61-4L119.61-4Q119.47-3.47 119.47-2.83L119.47-2.83Q119.47-2.49 119.54-2.2 119.61-1.9 119.61-1.56L119.61-1.56Q119.61-1.07 119.3-0.9 118.98-0.73 119.08-0.29L119.08-0.29Q118.49-0.05 117.95 0.2 117.42 0.44 116.83 0.54L116.83 0.54Q116.59 0.59 116.34 0.56 116.1 0.54 115.9 0.63L115.9 0.63Q115.66 0.73 115.51 1 115.37 1.27 115.12 1.27L115.12 1.27Q114.83 1.27 114.78 1.05 114.73 0.83 114.58 0.68L114.58 0.68Q114.34 0.59 114.19 0.59 114.05 0.59 113.9 0.44L113.9 0.44Q113.95 0 113.71-0.22 113.46-0.44 113.46-1.12L113.46-1.12Q113.46-1.66 113.53-2.15 113.61-2.64 113.61-3.17L113.61-3.17Q113.61-3.61 113.49-3.98 113.36-4.35 113.27-4.79L113.27-4.79Q113.22-4.98 113.27-5.18 113.32-5.37 113.32-5.57L113.32-5.57Q113.32-6.45 113.24-7.35 113.17-8.25 113.17-9.13L113.17-9.13Q113.17-9.47 113.17-9.77 113.17-10.06 113.22-10.35L113.22-10.35Q113.32-10.64 113.39-10.84 113.46-11.04 113.46-11.33L113.46-11.33Q113.46-12.26 113.27-13.16 113.07-14.06 113.07-14.94L113.07-14.94Q113.07-15.43 113.1-15.94 113.12-16.46 113.12-16.94L113.12-16.94Q113.12-18.36 113.07-19.73 113.02-21.09 113.02-22.46L113.02-22.46Q113.02-23.44 113.07-24.39 113.12-25.34 113.12-26.32L113.12-26.32Q113.12-27.54 113.02-28.74 112.92-29.93 112.92-31.2L112.92-31.2Q112.92-31.64 112.88-31.79 112.83-31.93 112.73-31.96 112.63-31.98 112.51-32.01 112.39-32.03 112.29-32.18L112.29-32.18Q112.29-32.47 112.53-32.59 112.78-32.71 112.78-33.4L112.78-33.4Q112.78-33.79 112.7-34.18 112.63-34.57 112.63-34.96L112.63-34.96Q112.63-35.55 112.88-36.13 113.12-36.72 113.32-37.26L113.32-37.26Q113.9-37.3 114.12-37.26 114.34-37.21 114.58-37.3L114.58-37.3Q114.73-36.77 115.22-36.74 115.71-36.72 116.1-36.62L116.1-36.62Q116.54-36.57 116.95-36.4 117.37-36.23 117.76-36.23L117.76-36.23Q117.86-35.94 118.17-35.82 118.49-35.69 118.83-35.6L118.83-35.6Q119.22-35.64 119.44-35.94 119.66-36.23 120.05-36.23L120.05-36.23Q120.35-36.23 120.74-35.82 121.13-35.4 121.32-35.16L121.32-35.16Q121.52-35.01 122.06-34.52 122.59-34.03 123.23-33.52 123.86-33.01 124.4-32.54 124.94-32.08 125.08-32.03L125.08-32.03Q127.08-30.03 128.82-28.39 130.55-26.76 132.6-25.44L132.6-25.44Q132.65-25.29 132.72-25.2 132.8-25.1 132.9-24.95L132.9-24.95Q132.9-24.56 132.75-24.37 132.6-24.17 132.6-23.88L132.6-23.88Q132.6-23.73 132.68-23.58 132.75-23.44 132.75-23.29L132.75-23.29Q132.8-23.1 132.77-22.92 132.75-22.75 132.75-22.56L132.75-22.56Q132.75-22.07 133.07-21.68 133.38-21.29 133.38-20.8L133.38-20.8Q133.29-20.36 132.99-20.26 132.7-20.17 132.5-20.02L132.5-20.02Q132.41-19.92 132.33-19.78 132.26-19.63 132.16-19.53L132.16-19.53Q131.09-19.04 130.6-18.63 130.11-18.21 129.57-17.82L129.57-17.82Q129.43-17.72 129.09-17.5 128.74-17.29 128.4-17.07 128.06-16.85 127.79-16.6 127.52-16.36 127.52-16.21L127.52-16.21Q127.52-15.87 127.94-15.26 128.35-14.65 128.55-14.31L128.55-14.31Q129.09-13.43 129.53-12.57 129.97-11.72 130.5-10.89L130.5-10.89Q131.48-9.38 132.33-7.81 133.19-6.25 134.02-4.69ZM126.06-22.85L126.06-22.85Q124.94-24.27 123.64-25.42 122.35-26.56 121.18-27.83L121.18-27.83 120.64-27.93Q120.35-28.42 119.98-28.78 119.61-29.15 119.22-29.54L119.22-29.54Q119.27-29 119.27-28.52 119.27-28.03 119.27-27.49L119.27-27.49Q119.27-25.93 119.2-24.44 119.13-22.95 119.13-21.44L119.13-21.44Q119.13-19.92 119.27-18.55L119.27-18.55Q120.3-18.55 121.13-19.14L121.13-19.14Q121.47-19.38 121.76-19.65 122.06-19.92 122.4-20.17L122.4-20.17Q122.79-20.41 123.3-20.75 123.81-21.09 124.33-21.44 124.84-21.78 125.3-22.14 125.77-22.51 126.06-22.85ZM147.59-37.01L147.69-36.96Q147.93-36.08 148.18-35.23 148.42-34.38 148.76-33.54L148.76-33.54Q149.49-33.45 149.67-33.4 149.84-33.35 150.08-33.25L150.08-33.25Q150.62-31.98 150.74-30.54 150.86-29.1 151.11-27.73L151.11-27.73Q152.03-26.51 152.45-25.12 152.86-23.73 153.4-22.31L153.4-22.31Q153.55-21.83 153.6-21.7 153.64-21.58 153.64-21.48L153.64-21.48Q153.94-20.65 154.23-19.78 154.52-18.9 154.87-18.07L154.87-18.07Q155.01-17.63 155.18-17.21 155.35-16.8 155.5-16.41L155.5-16.41Q155.65-15.92 155.77-15.41 155.89-14.89 156.04-14.4L156.04-14.4Q156.38-13.43 156.77-12.45 157.16-11.47 157.55-10.5L157.55-10.5Q157.7-10.16 158.11-8.98 158.53-7.81 158.97-6.52 159.41-5.22 159.77-4.13 160.14-3.03 160.14-2.78L160.14-2.78Q160.14-2.39 160.21-1.98 160.29-1.56 160.33-1.12L160.33-1.12Q160.14-0.63 159.85-0.59 159.55-0.54 159.31-0.63L159.31-0.63Q159.06-0.54 158.84-0.44 158.63-0.34 158.43-0.24L158.43-0.24Q158.28-0.2 158.19-0.1 158.09 0 157.94 0L157.94 0Q157.36 0 157.18 0.12 157.01 0.24 156.67 0.24L156.67 0.24Q156.23 0.1 156.11 0.22 155.99 0.34 155.89 0.39L155.89 0.39Q155.7 0.49 155.45 0.49 155.21 0.49 154.96 0.54L154.96 0.54Q154.87 0.34 154.79 0.15 154.72-0.05 154.57-0.29L154.57-0.29Q154.04-1.07 153.82-1.81 153.6-2.54 153.45-2.98L153.45-2.98Q153.21-3.52 153.03-4.05 152.86-4.59 152.62-5.13L152.62-5.13Q152.33-5.03 152.08-4.91 151.84-4.79 151.69-4.59L151.69-4.59Q151.11-4.59 151.11-4.44 151.11-4.3 151.01-4.15L151.01-4.15Q150.71-4.05 150.54-3.96 150.37-3.86 149.98-3.91L149.98-3.91Q149.74-3.66 149.49-3.49 149.25-3.32 148.86-3.27L148.86-3.27Q148.47-2.88 148.05-2.61 147.64-2.34 147.1-2.49L147.1-2.49Q146.42-2.34 145.73-2.22 145.05-2.1 144.37-2.1L144.37-2.1Q143.59-2.34 143.39-2.54 143.2-2.73 142.8-2.73L142.8-2.73Q142.85-3.42 142.51-3.66L142.51-3.66Q142.51-3.81 142.54-4.13 142.56-4.44 142.66-4.54L142.66-4.54Q143.29-4.83 143.39-5.18 143.49-5.52 143.93-5.62L143.93-5.62Q144.03-5.81 144.15-5.98 144.27-6.15 144.37-6.35L144.37-6.35Q144.61-6.45 144.78-6.49 144.95-6.54 145.05-6.79L145.05-6.79Q145.3-6.79 145.78-7.1 146.27-7.42 146.42-7.62L146.42-7.62Q146.81-7.76 146.91-7.89 147-8.01 147.15-8.11L147.15-8.11Q147.64-8.06 147.79-8.2L147.79-8.2Q148.18-8.01 148.66-8.01L148.66-8.01Q148.86-8.01 149.01-8.03 149.15-8.06 149.35-8.06L149.35-8.06Q149.74-8.45 150.35-8.57 150.96-8.69 151.35-9.08L151.35-9.08Q151.2-9.47 151.11-10.03 151.01-10.6 150.76-10.94L150.76-10.94Q150.67-11.57 150.45-12.16 150.23-12.74 150.08-13.28L150.08-13.28Q149.54-15.33 148.81-17.29 148.08-19.24 147.59-21.29L147.59-21.29Q147.49-21.53 147.37-21.8 147.25-22.07 147.15-22.31L147.15-22.31Q146.91-21.73 146.91-21.66 146.91-21.58 146.81-21.48L146.81-21.48Q146.76-21.24 146.71-21.07 146.66-20.9 146.56-20.65L146.56-20.65Q146.42-20.26 146.3-19.8 146.17-19.34 146.08-18.95L146.08-18.95Q145.83-18.12 145.64-17.21 145.44-16.31 145.2-15.43L145.2-15.43Q144.71-13.92 144.2-12.43 143.68-10.94 143.2-9.42L143.2-9.42Q143.1-8.74 142.98-8.37 142.85-8.01 142.73-7.64 142.61-7.28 142.54-6.93 142.46-6.59 142.46-6.4L142.46-6.4Q141.78-4.83 141.32-3.22 140.85-1.61 140.17-0.1L140.17-0.1Q139.97 0 139.83 0.15 139.68 0.29 139.48 0.29L139.48 0.29Q139.09 0.29 139.07 0.1 139.05-0.1 138.85-0.1L138.85-0.1Q138.65-0.1 138.51-0.02 138.36 0.05 138.21 0.15L138.21 0.15Q137.97 0.05 137.65 0.02 137.34 0 137.19-0.2L137.19-0.2Q136.85 0.05 136.51 0.05L136.51 0.05Q136.12 0.05 135.72-0.2L135.72-0.2Q135.43-0.1 135.14-0.1L135.14-0.1Q134.99-0.1 134.8-0.15 134.6-0.2 134.5-0.29L134.5-0.29Q134.46-0.49 134.46-0.68 134.46-0.88 134.46-1.12L134.46-1.12Q134.46-1.61 134.36-1.86L134.36-1.86Q135.24-4.35 136.07-6.91 136.9-9.47 137.73-12.11L137.73-12.11Q138.17-13.33 138.58-14.5 139-15.67 139.39-16.89L139.39-16.89Q139.58-17.58 139.73-18.19 139.88-18.8 140.12-19.38L140.12-19.38Q140.51-20.65 140.92-21.95 141.34-23.24 141.68-24.51L141.68-24.51Q141.88-24.66 141.93-24.85 141.97-25.05 142.07-25.29L142.07-25.29 142.02-25.93Q142.37-26.42 142.49-26.78 142.61-27.15 142.66-27.54L142.66-27.54Q142.9-28.13 143.1-28.81 143.29-29.49 143.39-30.08L143.39-30.08Q143.49-30.86 143.51-31.86 143.54-32.86 143.78-33.54L143.78-33.54Q143.88-33.74 143.95-33.81 144.03-33.89 144.03-34.13L144.03-34.13Q144.12-34.23 144.25-34.35 144.37-34.47 144.42-34.62L144.42-34.62Q144.66-35.01 144.59-35.3 144.51-35.6 144.51-35.94L144.51-35.94Q144.95-36.18 144.9-36.38 144.86-36.57 144.86-36.77L144.86-36.77Q144.86-37.01 145.17-37.23 145.49-37.45 145.59-37.7L145.59-37.7Q145.88-37.65 146.17-37.62 146.47-37.6 146.76-37.65L146.76-37.65Q147.1-37.01 147.59-37.01L147.59-37.01ZM182.99-34.91L182.99-34.91Q182.89-34.72 182.91-34.52 182.94-34.33 182.94-34.08L182.94-34.08Q182.84-33.5 182.94-33.5 183.04-33.5 183.04-33.4L183.04-33.4 182.69-32.91Q182.69-32.62 182.57-32.37 182.45-32.13 182.5-31.79L182.5-31.79Q182.35-31.54 182.23-31.3 182.11-31.05 181.86-30.81L181.86-30.81 181.23-30.81Q180.69-30.81 180.08-30.74 179.47-30.66 178.89-30.66L178.89-30.66Q178.79-30.66 178.64-30.69 178.5-30.71 178.35-30.71L178.35-30.71Q178.25-30.71 178.11-30.69 177.96-30.66 177.76-30.66L177.76-30.66Q177.03-30.66 176.32-30.74 175.61-30.81 174.83-30.81L174.83-30.81Q174.64-30.81 174.44-30.81 174.25-30.81 174-30.76L174-30.76Q173.95-29.93 173.93-29.08 173.91-28.22 173.91-27.34L173.91-27.34Q173.91-27.1 173.86-26.83 173.81-26.56 173.81-26.32L173.81-26.32Q173.76-25.68 173.73-25.1 173.71-24.51 173.71-23.88L173.71-23.88Q173.71-22.51 173.73-21.14 173.76-19.78 173.81-18.36L173.81-18.36Q173.86-17.63 173.91-16.94 173.95-16.26 173.95-15.53L173.95-15.53Q173.95-13.87 173.91-12.23 173.86-10.6 173.86-8.94L173.86-8.94Q173.86-8.4 173.81-7.93 173.76-7.47 173.76-6.93L173.76-6.93Q173.76-5.81 173.81-4.69 173.86-3.56 173.86-2.44L173.86-2.44Q173.86-1.9 173.83-1.37 173.81-0.83 173.81-0.29L173.81-0.29Q173.56 0.1 173.47 0.39 173.37 0.68 172.88 0.68L172.88 0.68Q172.54 0.59 172.56 0.46 172.59 0.34 172.49 0.24L172.49 0.24Q172.05 0.2 171.83 0.32 171.61 0.44 171.32 0.54L171.32 0.54Q171.17 0.49 171 0.49 170.83 0.49 170.68 0.49L170.68 0.49Q170.59 0.49 170.49 0.56 170.39 0.63 170.05 0.63L170.05 0.63Q169.76 0.68 169.71 0.54 169.66 0.39 169.41 0.39L169.41 0.39Q169.17 0.54 168.85 0.61 168.53 0.68 168.24 0.68L168.24 0.68Q167.95 0.49 167.97 0.32 168 0.15 167.9-0.05L167.9-0.05Q167.85-0.15 167.73-0.32 167.61-0.49 167.51-0.59L167.51-0.59Q167.61-1.27 167.66-1.81 167.7-2.34 167.7-2.98L167.7-2.98Q167.7-4.25 167.61-5.47 167.51-6.69 167.51-7.96L167.51-7.96Q167.51-8.35 167.61-8.79 167.7-9.23 167.7-9.72L167.7-9.72Q167.61-10.11 167.66-10.18 167.7-10.25 167.7-10.35L167.7-10.35Q167.7-10.64 167.68-10.94 167.66-11.23 167.66-11.52L167.66-11.52Q167.66-12.11 167.68-12.7 167.7-13.28 167.7-13.87L167.7-13.87Q167.7-14.11 167.68-14.38 167.66-14.65 167.66-14.89L167.66-14.89Q167.61-15.33 167.63-15.82 167.66-16.31 167.66-16.8L167.66-16.8Q167.66-19.14 167.58-21.44 167.51-23.73 167.51-26.07L167.51-26.07Q167.51-27.25 167.63-28.39 167.75-29.54 167.75-30.71L167.75-30.71Q167.75-30.86 167.66-31.1 167.56-31.35 167.46-31.45L167.46-31.45Q167.22-31.45 167-31.47 166.78-31.49 166.53-31.49L166.53-31.49Q166-31.49 165.51-31.35L165.51-31.35Q164.58-31.3 163.73-31.23 162.87-31.15 161.99-31.1L161.99-31.1Q161.41-31.15 161.28-31.13 161.16-31.1 161.02-31.1L161.02-31.1Q160.62-31.1 160.43-31.3L160.43-31.3 160.43-31.93Q160.14-32.52 160.19-32.57 160.23-32.62 160.23-32.71L160.23-32.71Q160.23-32.86 159.97-33.03 159.7-33.2 159.7-33.59L159.7-33.59Q159.65-33.98 159.5-34.18 159.36-34.38 159.36-34.57L159.36-34.57Q159.36-34.91 159.5-35.35L159.5-35.35Q159.94-35.6 160.36-35.69 160.77-35.79 161.31-35.94L161.31-35.94Q161.6-36.04 161.85-36.13 162.09-36.23 162.38-36.28L162.38-36.28Q162.72-36.33 163.07-36.33 163.41-36.33 163.75-36.38L163.75-36.38Q164.48-36.52 165.29-36.62 166.09-36.72 166.83-36.72L166.83-36.72Q167.51-36.72 168.19-36.55 168.88-36.38 169.41-36.38L169.41-36.38Q170.19-36.38 170.9-36.28 171.61-36.18 172.39-36.18L172.39-36.18Q172.49-36.18 172.71-36.11 172.93-36.04 173.22-36.04L173.22-36.04 177.96-36.04Q178.35-35.94 178.52-35.99 178.69-36.04 178.84-36.04L178.84-36.04Q179.23-36.04 179.57-35.99 179.91-35.94 180.3-35.94L180.3-35.94Q180.64-35.94 180.84-35.99L180.84-35.99Q181.23-35.94 181.57-35.77 181.91-35.6 182.35-35.6L182.35-35.6Q182.55-35.45 182.65-35.23 182.74-35.01 182.99-34.91ZM193.24-33.2L193.24-33.2Q193.24-32.76 192.95-32.54 192.65-32.32 192.41-31.98L192.41-31.98Q191.92-31.54 191.55-31.08 191.19-30.62 190.7-30.18L190.7-30.18Q190.5-29.98 190.16-29.66 189.82-29.35 189.46-29.03 189.09-28.71 188.72-28.47 188.36-28.22 188.11-28.22L188.11-28.22Q187.72-28.22 187.11-28.49 186.5-28.76 186.06-28.86L186.06-28.86Q185.72-28.91 185.45-28.93 185.18-28.96 184.94-29.2L184.94-29.2Q184.06-29.39 183.82-29.81 183.57-30.22 183.28-30.66L183.28-30.66Q183.28-30.86 183.42-30.91 183.57-30.96 183.67-31.1L183.67-31.1Q184.16-31.74 184.5-32.15 184.84-32.57 185.28-33.01L185.28-33.01Q186.11-33.74 186.87-34.52 187.62-35.3 188.45-35.99L188.45-35.99Q188.84-36.04 189.04-36.28 189.24-36.52 189.63-36.52L189.63-36.52Q190.02-36.52 190.29-36.28 190.55-36.04 190.77-35.72 190.99-35.4 191.21-35.08 191.43-34.77 191.73-34.62L191.73-34.62Q192.07-34.38 192.65-33.98 193.24-33.59 193.24-33.2ZM186.55-24.12L186.55-24.12Q186.89-23.93 187.06-23.61 187.23-23.29 187.58-23.14L187.58-23.14Q187.87-23 188.21-23 188.55-23 188.8-22.9L188.8-22.9Q188.99-22.8 189.09-22.66 189.19-22.51 189.28-22.36L189.28-22.36Q189.58-22.12 190.19-21.92 190.8-21.73 190.99-21.48L190.99-21.48Q191.33-21.04 191.51-20.36 191.68-19.68 191.77-18.92 191.87-18.16 191.92-17.41 191.97-16.65 192.07-16.11L192.07-16.11Q192.17-14.99 192.31-13.89 192.46-12.79 192.46-11.67L192.46-11.67Q192.46-10.55 192.36-9.38 192.26-8.2 192.26-7.08L192.26-7.08Q192.26-6.49 192.24-5.62 192.21-4.74 191.82-4.25L191.82-4.25Q191.77-4.05 191.77-3.56L191.77-3.56 191.77-2Q191.77-1.71 191.82-1.42 191.87-1.12 191.87-0.78L191.87-0.78Q191.87-0.24 191.58 0L191.58 0Q191.43-0.05 191.26-0.05 191.09-0.05 190.94-0.05L190.94-0.05Q190.41-0.05 190.16 0.15L190.16 0.15Q189.63 0.1 189.14 0.05 188.65 0 188.11 0L188.11 0Q187.28 0 186.31 0.24L186.31 0.24Q186.11-0.24 186.13-0.78 186.16-1.32 185.92-1.76L185.92-1.76Q185.87-1.9 185.84-2.03 185.82-2.15 185.82-2.29L185.82-2.29Q185.96-2.88 185.96-3.1 185.96-3.32 185.96-3.56L185.96-3.56Q185.96-4.25 185.92-4.96 185.87-5.66 185.96-6.35L185.96-6.35Q185.96-6.59 186.04-6.79 186.11-6.98 186.11-7.23L186.11-7.23Q186.11-7.47 186.01-7.57 185.92-7.67 185.92-7.81L185.92-7.81Q185.92-7.96 185.94-8.3 185.96-8.64 186.06-8.74L186.06-8.74Q186.06-9.13 186.09-9.5 186.11-9.86 186.11-10.21L186.11-10.21Q186.11-10.99 186.06-11.77 186.01-12.55 186.01-13.28L186.01-13.28Q186.01-13.62 185.96-13.72 185.92-13.82 185.87-13.87 185.82-13.92 185.72-13.94 185.62-13.96 185.57-14.11L185.57-14.11Q185.77-16.26 185.43-18.41 185.08-20.56 185.08-22.75L185.08-22.75Q185.08-23.1 185.18-23.27 185.28-23.44 185.43-23.54 185.57-23.63 185.7-23.75 185.82-23.88 185.87-24.12L185.87-24.12Q186.26-24.02 186.55-24.12ZM221.7-19.38L221.7-19.38Q221.61-19.19 221.51-19.02 221.41-18.85 221.36-18.65L221.36-18.65Q221.56-18.46 221.73-18.24 221.9-18.02 221.9-17.77L221.9-17.77Q221.9-17.58 221.83-17.41 221.75-17.24 221.8-17.09L221.8-17.09Q221.61-16.75 221.39-16.46 221.17-16.16 221.07-15.82L221.07-15.82Q220.87-15.63 220.75-15.43 220.63-15.23 220.53-15.04L220.53-15.04Q220.29-14.94 220.21-14.72 220.14-14.5 219.95-14.36L219.95-14.36Q219.9-14.16 219.46-13.43 219.02-12.7 218.48-11.87 217.94-11.04 217.46-10.25 216.97-9.47 216.77-9.23L216.77-9.23Q216.67-8.98 216.55-8.84 216.43-8.69 216.28-8.5L216.28-8.5Q216.19-8.35 216.14-8.18 216.09-8.01 215.99-7.91L215.99-7.91Q215.89-7.71 215.77-7.57 215.65-7.42 215.55-7.18L215.55-7.18Q215.06-6.54 214.57-5.66 214.09-4.79 213.65-4.1L213.65-4.1Q213.4-3.71 213.18-3.32 212.96-2.93 212.72-2.54L212.72-2.54Q212.48-2.15 212.23-1.81 211.99-1.46 211.74-1.07L211.74-1.07Q211.35-0.78 211.06-0.37 210.77 0.05 210.38 0.34L210.38 0.34Q209.74 0.34 209.59-0.24L209.59-0.24Q208.96-0.39 208.96-0.24 208.96-0.1 208.96 0L208.96 0Q208.76 0.1 208.69 0.29 208.62 0.49 208.42 0.59L208.42 0.59Q208.03 0.49 207.76 0.27 207.49 0.05 207.01 0.1L207.01 0.1Q206.81-0.2 206.57-0.42 206.32-0.63 206.13-0.88L206.13-0.88Q206.03-1.17 205.86-1.37 205.69-1.56 205.54-1.76L205.54-1.76Q205.39-2 205.25-2.2 205.1-2.39 204.96-2.59L204.96-2.59Q204.61-3.03 204.3-3.44 203.98-3.86 203.73-4.3L203.73-4.3Q203.34-4.88 202.98-5.49 202.61-6.1 202.22-6.69L202.22-6.69Q202.03-6.98 201.83-7.28 201.64-7.57 201.49-7.86L201.49-7.86Q201.39-8.11 201.22-8.45 201.05-8.79 200.81-8.89L200.81-8.89Q200.71-9.28 200.46-9.47 200.22-9.67 199.98-9.96L199.98-9.96Q199.63-10.35 199.34-10.82 199.05-11.28 198.75-11.77L198.75-11.77Q197.78-13.13 196.92-14.45 196.07-15.77 195.24-17.19L195.24-17.19Q195.48-17.97 195.48-18.36 195.48-18.75 195.73-18.99L195.73-18.99Q195.73-19.19 195.82-19.58L195.82-19.58Q196.46-20.65 197.05-21.53L197.05-21.53Q197.58-22.36 197.8-22.9 198.02-23.44 198.27-24.02L198.27-24.02Q198.51-24.17 198.66-24.39 198.8-24.61 199.05-24.8L199.05-24.8Q199.14-25.34 199.49-25.71 199.83-26.07 199.93-26.61L199.93-26.61Q200.37-26.95 200.41-27.39L200.41-27.39Q201.05-27.83 201.2-28.56L201.2-28.56Q201.59-28.96 201.85-29.44 202.12-29.93 202.37-30.47L202.37-30.47Q202.95-30.96 203.3-31.74L203.3-31.74Q203.59-31.93 203.73-32.28 203.88-32.62 204.13-32.86L204.13-32.86Q204.52-33.5 204.74-33.91 204.96-34.33 205.2-34.77L205.2-34.77Q205.54-34.77 205.64-35.01 205.74-35.25 206.03-35.21L206.03-35.21Q206.03-35.64 206.27-35.99L206.27-35.99Q206.37-36.04 206.57-36.11 206.76-36.18 206.76-36.28L206.76-36.28Q206.66-36.87 206.81-36.96 206.96-37.06 207.06-37.16L207.06-37.16Q207.59-37.06 207.79-37.01 207.98-36.96 208.42-36.67L208.42-36.67Q208.91-36.67 209.11-36.47 209.3-36.28 209.55-36.18L209.55-36.18Q209.74-35.99 209.86-35.79 209.98-35.6 210.23-35.5L210.23-35.5Q210.62-34.96 211.06-34.33 211.5-33.69 211.89-33.15L211.89-33.15Q212.43-32.42 212.99-31.76 213.55-31.1 214.04-30.32L214.04-30.32Q214.18-30.08 214.57-29.47 214.97-28.86 215.45-28.17 215.94-27.49 216.33-26.93 216.72-26.37 216.87-26.27L216.87-26.27Q217.02-26.03 217.5-25.34 217.99-24.66 218.55-23.9 219.12-23.14 219.65-22.46 220.19-21.78 220.39-21.58L220.39-21.58Q220.92-20.85 221.19-20.39 221.46-19.92 221.7-19.38ZM210.52-10.21L210.52-10.21Q211.06-10.94 211.35-11.52 211.64-12.11 211.94-12.7L211.94-12.7Q212.43-13.28 212.52-13.53 212.62-13.77 212.77-14.01L212.77-14.01Q213.16-14.6 213.57-15.19 213.99-15.77 214.23-16.46L214.23-16.46Q214.53-16.65 214.67-16.94 214.82-17.24 215.11-17.48L215.11-17.48Q214.82-18.51 214.43-19.07 214.04-19.63 213.65-20.17L213.65-20.17Q213.5-20.41 213.35-20.65 213.21-20.9 213.06-21.14L213.06-21.14Q212.87-21.29 212.74-21.44 212.62-21.58 212.48-21.73L212.48-21.73Q212.38-21.97 212.18-22.36L212.18-22.36Q211.99-22.61 211.79-22.8 211.6-23 211.45-23.29L211.45-23.29Q211.25-23.49 210.96-23.83 210.67-24.17 210.35-24.58 210.03-25 209.79-25.37 209.55-25.73 209.4-25.98L209.4-25.98Q209.3-26.22 209.23-26.39 209.15-26.56 209.06-26.76L209.06-26.76Q208.81-27.1 208.57-27.37 208.32-27.64 208.08-27.98L208.08-27.98Q207.93-27.88 207.81-27.86 207.69-27.83 207.59-27.73L207.59-27.73Q207.25-27.1 206.84-26.56 206.42-26.03 206.03-25.39L206.03-25.39Q205.69-24.8 205.35-24.19 205-23.58 204.66-23L204.66-23Q204.42-22.66 204.2-22.34 203.98-22.02 203.73-21.63L203.73-21.63Q203.49-21.29 203.32-20.92 203.15-20.56 202.9-20.21L202.9-20.21Q202.51-19.73 202.27-19.34 202.03-18.95 201.78-18.41L201.78-18.41Q201.93-18.12 202.25-17.6 202.56-17.09 202.9-16.58 203.25-16.06 203.52-15.63 203.78-15.19 203.83-15.04L203.83-15.04Q204.22-14.7 204.47-14.28 204.71-13.87 205.1-13.48L205.1-13.48Q205.3-13.09 205.54-12.79 205.79-12.5 206.03-12.16L206.03-12.16Q206.27-11.82 206.66-11.16 207.06-10.5 207.45-9.81 207.84-9.13 208.23-8.54 208.62-7.96 208.86-7.81L208.86-7.81Q209.35-8.35 209.67-9.01 209.98-9.67 210.52-10.21ZM240.89-36.43L240.89-36.43Q241.67-36.52 242.09-36.3 242.5-36.08 242.94-36.04L242.94-36.04Q243.19-35.99 243.45-36.01 243.72-36.04 244.02-36.04L244.02-36.04Q244.65-36.04 245.02-35.89 245.38-35.74 245.77-35.25L245.77-35.25Q245.87-35.16 246.04-34.99 246.21-34.81 246.21-34.67L246.21-34.67Q246.21-34.28 246.02-33.98 245.82-33.69 245.82-33.15L245.82-33.15Q245.82-32.32 246.02-31.52 246.21-30.71 246.26-29.88L246.26-29.88Q246.51-26.86 246.53-23.8 246.55-20.75 246.55-17.77L246.55-17.77Q246.55-17.38 246.53-17.07 246.51-16.75 246.31-16.5L246.31-16.5 246.31-15.87Q246.26-14.6 246.36-13.31 246.46-12.01 246.46-10.74L246.46-10.74Q246.46-9.62 246.33-8.5 246.21-7.37 246.21-6.2L246.21-6.2Q246.21-5.13 246.36-4.1 246.51-3.08 246.51-2L246.51-2Q246.26-1.56 246.21-1.32 246.16-1.07 246.02-0.88L246.02-0.88Q245.87-0.78 245.7-0.83 245.53-0.88 245.43-0.73L245.43-0.73Q245.19-0.44 245.09-0.05 244.99 0.34 244.6 0.59L244.6 0.59Q244.5 1.27 244.09 1.64 243.67 2 243.48 2.59L243.48 2.59Q242.89 2.64 242.67 2.54 242.45 2.44 242.21 2.34L242.21 2.34Q242.16 1.51 242.23 1.15 242.31 0.78 242.31 0.39L242.31 0.39Q242.31-0.1 242.06-0.34 241.82-0.59 241.72-0.98L241.72-0.98Q241.18-1.32 240.99-1.44 240.79-1.56 240.65-1.76L240.65-1.76Q240.35-2.15 240.16-2.59 239.96-3.03 239.72-3.42L239.72-3.42Q239.04-4.54 238.33-5.71 237.62-6.88 236.79-8.01L236.79-8.01Q236.64-8.25 236.45-8.45 236.25-8.64 236.11-8.89L236.11-8.89Q235.28-10.21 234.54-11.57 233.81-12.94 232.83-14.16L232.83-14.16Q232.44-14.65 232.25-15.26 232.05-15.87 231.66-16.31L231.66-16.31Q231.61-16.06 231.61-15.77 231.61-15.48 231.61-15.23L231.61-15.23Q231.61-13.57 231.69-11.94 231.76-10.3 231.76-8.64L231.76-8.64Q231.76-8.3 231.69-8.03 231.61-7.76 231.61-7.42L231.61-7.42Q231.61-6.93 231.66-6.49 231.71-6.05 231.71-5.62L231.71-5.62Q231.71-5.08 231.69-4.59 231.66-4.1 231.61-3.61L231.61-3.61Q231.52-2.98 231.37-2.42 231.22-1.86 231.22-1.27L231.22-1.27Q231.22-0.93 231.3-0.63 231.37-0.34 231.37-0.1L231.37-0.1Q231.03 0.44 230.51 0.44 230 0.44 229.66 0.83L229.66 0.83Q229.37 0.78 229.2 0.88 229.03 0.98 228.88 0.98L228.88 0.98Q228.68 0.98 228.56 0.93 228.44 0.88 228.29 0.88L228.29 0.88Q228.05 0.88 227.8 1.12 227.56 1.37 227.32 1.37L227.32 1.37Q227.17 1.37 226.8 1.17 226.44 0.98 226.02 0.71 225.61 0.44 225.27 0.17 224.92-0.1 224.92-0.24L224.92-0.24Q224.87-0.49 224.87-0.93L224.87-0.93Q224.87-1.51 224.95-2.08 225.02-2.64 225.12-3.22L225.12-3.22Q225.27-4.88 225.27-6.52 225.27-8.15 225.27-9.81L225.27-9.81Q225.27-10.5 225.29-11.18 225.31-11.87 225.31-12.55L225.31-12.55Q225.31-14.16 225.19-15.8 225.07-17.43 225.07-19.04L225.07-19.04Q225.07-20.17 225.17-21.26 225.27-22.36 225.27-23.44L225.27-23.44Q225.27-24.27 225.22-25.05 225.17-25.83 225.17-26.66L225.17-26.66Q225.12-27.2 225.17-27.81 225.22-28.42 225.22-28.96L225.22-28.96Q225.22-29.59 225.05-30.15 224.87-30.71 224.87-31.2L224.87-31.2Q224.87-31.49 225-31.76 225.12-32.03 225.12-32.32L225.12-32.32Q225.12-32.71 225-33.11 224.87-33.5 224.87-33.89L224.87-33.89Q224.87-34.28 224.97-34.62 225.07-34.96 225.07-35.35L225.07-35.35Q225.75-35.69 226.29-35.69L226.29-35.69Q226.83-35.69 227.07-35.3L227.07-35.3Q227.07-34.42 227.17-33.96 227.27-33.5 227.32-33.01L227.32-33.01Q227.32-32.71 227.29-32.32 227.27-31.93 227.32-31.57 227.37-31.2 227.54-30.96 227.71-30.71 228.15-30.71L228.15-30.71Q228.24-30.47 228.39-30.27 228.54-30.08 228.59-29.79L228.59-29.79Q228.88-29.98 228.93-30.32 228.98-30.66 228.93-30.96L228.93-30.96Q229.17-30.86 229.37-30.88 229.56-30.91 229.76-30.81L229.76-30.81Q229.86-30.13 230-29.61 230.15-29.1 230.1-28.42L230.1-28.42Q231.08-27.69 231.78-26.34 232.49-25 233.13-23.93L233.13-23.93Q233.47-23.39 233.93-22.92 234.4-22.46 234.64-21.83L234.64-21.83Q235.03-21.58 235.28-21.19 235.52-20.8 235.71-20.41L235.71-20.41Q236.69-18.7 237.86-17.09 239.04-15.48 240.3-13.92L240.3-13.92Q240.35-14.26 240.35-14.58 240.35-14.89 240.35-15.23L240.35-15.23 240.3-19.63Q240.3-20.02 240.28-20.36 240.26-20.7 240.21-21.09L240.21-21.09Q240.11-22.36 240.16-23.58 240.21-24.8 240.16-26.07L240.16-26.07Q240.06-27.39 240.04-28.76 240.01-30.13 239.91-31.49L239.91-31.49Q239.87-32.32 239.82-33.15 239.77-33.98 239.77-34.81L239.77-34.81Q239.77-35.84 239.96-36.67L239.96-36.67Q240.06-36.77 240.18-36.84 240.3-36.91 240.5-36.91L240.5-36.91Q240.79-36.91 240.89-36.43Z" opacity="1" transform="matrix(1,0,0,1,0,0)" fill="#000000" class="undefined-text-0" data-fill-palette-color="primary" id="text-0"></path></svg></g></svg></g></svg></g></svg></g><g><svg viewBox="0 0 39.759723082510675 89.2451671135942" height="89.2451671135942" width="39.759723082510675"><g><svg xmlns="http://www.w3.org/2000/svg" xmlns:xlink="http://www.w3.org/1999/xlink" version="1.1" x="0" y="0" viewBox="29.893000000000015 4.920000000000009 40.091999999999985 89.99099999999999" enable-background="new 0 0 100 100" xml:space="preserve" height="89.2451671135942" width="39.759723082510675" class="icon-icon-0" data-fill-palette-color="accent" id="icon-0"><g fill="#e8772e" data-fill-palette-color="accent"><path fill-rule="evenodd" clip-rule="evenodd" d="M69.985 6.045l-9.49 26.892h1.729c0 0-2.934 9.434-0.99 15.154 1.971 5.809 11.039 25.078-9.232 30.164 0 0-2.047 10.205 0.154 11.086 2.197 0.879 9.088 2.492 9.455 3.078s-0.246 2.492-12.748 2.492l0 0c-0.004 0-0.006 0-0.01 0s-0.008 0-0.012 0l0 0c-12.5 0-13.113-1.906-12.748-2.492 0.367-0.586 7.258-2.199 9.457-3.078 2.199-0.881 0.152-11.086 0.152-11.086-20.271-5.086-11.205-24.355-9.232-30.164 1.943-5.721-0.99-15.154-0.99-15.154h2.996c-0.301-0.623-0.477-1.316-0.477-2.057 0-1.779 0.986-3.328 2.439-4.135l-1.236-2.148c-4.918 2.201-9.309 1.684-9.309 1.684l6.381-6.773-0.879-1.529 0.977-0.563 0.85 1.475 9.746-0.668c-2.043 2.824-4.424 4.672-6.746 5.881l1.277 2.219c0.393-0.105 0.801-0.166 1.227-0.166 2.611 0 4.727 2.115 4.727 4.725 0 0.74-0.174 1.434-0.477 2.057h1.865 0.021 8.039l9.891-28.019L69.985 6.045z" fill="#000000" data-fill-palette-color="accent"></path></g></svg></g></svg></g></svg></g><defs></defs></svg><rect width="395.52" height="74.84890222120889" fill="none" stroke="none" visibility="hidden"></rect></g></svg></g></svg>